<svg width="30" height="202" viewBox="0 0 30 202" fill="none" xmlns="http://www.w3.org/2000/svg">
<path d="M4.36791 201.456H2.24224L3.7453 199.952C4.55574 199.142 5.06183 198.088 5.19789 196.944C1.72729 194.667 0 191.367 0 187.908C0 181.527 5.86522 175.042 15.0508 175.042C24.782 175.042 30 181.009 30 187.349C30 193.731 24.7269 199.695 15.0508 199.695C13.3558 199.695 11.5871 199.468 10.008 199.053C8.51312 200.586 6.4877 201.456 4.36791 201.456V201.456Z" fill="white"/>
<path d="M15.0292 21.9192C13.5702 21.9192 12.3925 23.0969 12.3925 24.5559C12.3925 26.0148 13.5702 27.1926 15.0292 27.1926C16.4883 27.1926 17.666 26.0148 17.666 24.5559C17.666 23.0969 16.4883 21.9192 15.0292 21.9192Z" fill="white"/>
<path d="M30 5.888L27.9083 8.77076C24.4805 6.04615 19.9688 4.46418 15.5039 4.35876H15.0292C10.3886 4.32355 5.6601 5.92316 2.10926 8.77076L0 5.888L0.720645 5.3606C4.74598 2.42511 9.93152 0.77271 15.0292 0.807925C19.8632 0.843081 25.2188 2.40748 30 5.888Z" fill="white"/>
<path d="M25.8691 11.5657L23.7773 14.4661C21.4394 12.4974 18.1933 11.3724 15.0293 11.3724H14.959C11.83 11.39 8.57812 12.5149 6.25781 14.4661L4.14844 11.5657L4.8515 11.056C7.78711 8.91138 11.5839 7.83911 15.0293 7.83911C18.4747 7.83911 22.2305 8.91138 25.1661 11.056L25.8691 11.5657Z" fill="white"/>
<path d="M21.7383 17.261L19.6289 20.1615C18.5039 19.0892 16.787 18.5091 15.4335 18.4212C15.293 18.4212 15.1699 18.4037 15.0293 18.4037C13.5527 18.4037 11.6191 18.9486 10.3887 20.1439L8.2793 17.2611L8.98248 16.7337C10.6699 15.5033 12.9551 14.8353 15.0293 14.8705C17.0859 14.9231 19.5586 15.6615 21.7383 17.261Z" fill="white"/>
<path d="M17.666 24.556C17.666 26.015 16.4883 27.1927 15.0292 27.1927V21.9193C16.4883 21.9193 17.666 23.097 17.666 24.556Z" fill="white"/>
<path d="M15.0292 14.8705C17.0858 14.9232 19.5586 15.6615 21.7383 17.2611L19.6289 20.1616C18.5039 19.0893 16.787 18.5092 15.4335 18.4213C15.293 18.4213 15.1699 18.4037 15.0293 18.4037V14.8705H15.0292Z" fill="white"/>
<path d="M25.1661 11.056L25.8691 11.5657L23.7773 14.4662C21.4394 12.4974 18.1933 11.3724 15.0293 11.3724V7.83923C18.4746 7.83923 22.2304 8.91144 25.1661 11.056Z" fill="white"/>
<path d="M30 5.88806L27.9083 8.77082C24.4805 6.04621 19.9688 4.46423 15.5039 4.35882H15.0292V0.807983C19.8632 0.84314 25.2188 2.40753 30 5.88806Z" fill="white"/>
<g clip-path="url(#clip0)">
<path d="M3.8568 94.7592C3.3399 94.7592 2.90133 94.9394 2.54082 95.2999C2.18031 95.6604 2 96.093 2 96.5979V104.35C2 104.868 2.18026 105.306 2.54082 105.667C2.90133 106.027 3.3399 106.207 3.8568 106.207C4.37332 106.207 4.80923 106.027 5.16416 105.667C5.51837 105.306 5.69597 104.868 5.69597 104.35V96.5979C5.69597 96.093 5.51572 95.6604 5.15515 95.2999C4.79459 94.9394 4.36171 94.7592 3.8568 94.7592Z" fill="white"/>
<path d="M18.7849 87.7999L20.0649 85.4385C20.149 85.2821 20.1191 85.1623 19.975 85.078C19.8186 85.0053 19.6985 85.0421 19.6145 85.1859L18.3165 87.5661C17.1744 87.0612 15.9664 86.8082 14.6926 86.8082C13.4185 86.8082 12.2104 87.0612 11.0687 87.5661L9.77069 85.1859C9.68634 85.0421 9.56618 85.0056 9.41018 85.078C9.26578 85.1626 9.23589 85.2821 9.32024 85.4385L10.6004 87.7999C9.30234 88.4618 8.26854 89.3837 7.49935 90.5675C6.73016 91.752 6.3454 93.0464 6.3454 94.453H23.0217C23.0217 93.0467 22.6369 91.7523 21.8677 90.5675C21.0985 89.3837 20.0706 88.4618 18.7849 87.7999ZM11.3841 91.2345C11.2457 91.3733 11.0803 91.4423 10.8881 91.4423C10.6956 91.4423 10.5336 91.3733 10.4014 91.2345C10.2693 91.0964 10.2032 90.9317 10.2032 90.7389C10.2032 90.5467 10.2693 90.3817 10.4014 90.2433C10.5336 90.1052 10.6959 90.0361 10.8881 90.0361C11.0803 90.0361 11.2457 90.1052 11.3841 90.2433C11.5222 90.382 11.5916 90.5467 11.5916 90.7389C11.5912 90.9314 11.5219 91.0964 11.3841 91.2345ZM18.983 91.2345C18.8506 91.3733 18.6883 91.4423 18.4964 91.4423C18.3038 91.4423 18.1385 91.3733 18.0003 91.2345C17.862 91.0964 17.7929 90.9317 17.7929 90.7389C17.7929 90.5467 17.862 90.3817 18.0003 90.2433C18.1385 90.1052 18.3038 90.0361 18.4964 90.0361C18.6886 90.0361 18.8506 90.1052 18.983 90.2433C19.1153 90.382 19.1812 90.5467 19.1812 90.7389C19.1812 90.9314 19.1152 91.0964 18.983 91.2345Z" fill="white"/>
<path d="M6.41699 107.109C6.41699 107.662 6.60918 108.131 6.99361 108.515C7.37837 108.899 7.84683 109.092 8.39986 109.092H9.73406L9.75234 113.185C9.75234 113.702 9.9326 114.14 10.2931 114.501C10.6536 114.862 11.0866 115.042 11.5911 115.042C12.1077 115.042 12.5466 114.862 12.9071 114.501C13.2677 114.14 13.4479 113.702 13.4479 113.185V109.092H15.9358V113.185C15.9358 113.702 16.116 114.14 16.4766 114.501C16.8372 114.862 17.2756 115.042 17.7926 115.042C18.3091 115.042 18.748 114.862 19.1085 114.501C19.4691 114.14 19.6493 113.702 19.6493 113.185V109.092H21.0015C21.5423 109.092 22.0047 108.9 22.3899 108.515C22.7743 108.131 22.9666 107.662 22.9666 107.109V95.1014H6.41699V107.109Z" fill="white"/>
<path d="M25.5276 94.7592C25.0227 94.7592 24.5901 94.9368 24.2295 95.291C23.869 95.6458 23.6888 96.0818 23.6888 96.5979V104.35C23.6888 104.868 23.869 105.306 24.2295 105.667C24.5901 106.027 25.023 106.207 25.5276 106.207C26.0442 106.207 26.483 106.027 26.8436 105.667C27.2042 105.306 27.3844 104.868 27.3844 104.35V96.5979C27.3844 96.0817 27.2042 95.6458 26.8436 95.291C26.483 94.9368 26.0442 94.7592 25.5276 94.7592Z" fill="white"/>
</g>
<path d="M29.4569 50.2008L15.4351 42.3085C15.161 42.1542 14.8389 42.1542 14.5648 42.3085L0.543047 50.2008C0.212227 50.3873 0 50.7738 0 51.1939V68.933C0 69.5452 0.437988 70.0417 0.978281 70.0417H29.0218C29.562 70.0417 30.0001 69.5453 30.0001 68.933V51.1939C30 50.7837 29.7964 50.3921 29.4569 50.2008ZM15 44.5394L26.8224 51.1939C26.296 51.4902 15.4995 57.5671 15 57.8483C14.4882 57.5602 3.70664 51.4916 3.1776 51.1939L15 44.5394ZM28.0435 67.8243H1.9565V52.9824L10.65 57.8756L4.30453 62.8138C3.8591 63.1604 3.74602 63.8506 4.05182 64.3554C4.35762 64.8601 4.96664 64.9883 5.41201 64.6417L12.6557 59.0046L14.5648 60.0793C14.8379 60.2331 15.16 60.2342 15.4352 60.0793L17.3443 59.0046L24.588 64.6417C25.0332 64.9883 25.6424 64.8601 25.9482 64.3554C26.254 63.8506 26.1409 63.1604 25.6955 62.8138L19.3499 57.8756L28.0435 52.9824V67.8243Z" fill="white"/>
<g clip-path="url(#clip1)">
<path d="M6.21094 160.042H23.7891C25.243 160.042 26.4258 158.859 26.4258 157.405V138.831H20.2734C18.8195 138.831 17.6367 137.648 17.6367 136.194V130.042H6.21094C4.75699 130.042 3.57422 131.224 3.57422 132.678V157.405C3.57422 158.859 4.75699 160.042 6.21094 160.042ZM9.72656 142.405H20.2734C20.7592 142.405 21.1523 142.798 21.1523 143.284C21.1523 143.77 20.7592 144.163 20.2734 144.163H9.72656C9.24076 144.163 8.84766 143.77 8.84766 143.284C8.84766 142.798 9.24076 142.405 9.72656 142.405ZM9.72656 145.921H20.2734C20.7592 145.921 21.1523 146.314 21.1523 146.799C21.1523 147.285 20.7592 147.678 20.2734 147.678H9.72656C9.24076 147.678 8.84766 147.285 8.84766 146.799C8.84766 146.314 9.24076 145.921 9.72656 145.921ZM9.72656 149.436H20.2734C20.7592 149.436 21.1523 149.829 21.1523 150.315C21.1523 150.801 20.7592 151.194 20.2734 151.194H9.72656C9.24076 151.194 8.84766 150.801 8.84766 150.315C8.84766 149.829 9.24076 149.436 9.72656 149.436ZM9.72656 152.952H16.7578C17.2436 152.952 17.6367 153.345 17.6367 153.831C17.6367 154.317 17.2436 154.71 16.7578 154.71H9.72656C9.24076 154.71 8.84766 154.317 8.84766 153.831C8.84766 153.345 9.24076 152.952 9.72656 152.952Z" fill="white"/>
<path d="M20.2734 137.073H25.9108L19.3945 130.557V136.194C19.3945 136.679 19.7885 137.073 20.2734 137.073Z" fill="white"/>
</g>
<defs>
<clipPath id="clip0">
<rect width="30" height="30" fill="white" transform="translate(0 85.0417)"/>
</clipPath>
<clipPath id="clip1">
<rect width="30" height="30" fill="white" transform="translate(0 130.042)"/>
</clipPath>
</defs>
</svg>
