<svg width="47" height="27" viewBox="0 0 47 27" fill="none" xmlns="http://www.w3.org/2000/svg">
<path d="M21.3679 26.4138H19.2422L20.7453 24.9108C21.5557 24.1003 22.0618 23.0462 22.1979 21.9028C18.7273 19.6252 17 16.3257 17 12.8666C17 6.48512 22.8652 0 32.0508 0C41.782 0 47 5.96753 47 12.3076C47 18.6894 41.7269 24.6529 32.0508 24.6529C30.3558 24.6529 28.5871 24.4266 27.008 24.0115C25.5131 25.5447 23.4877 26.4138 21.3679 26.4138V26.4138Z" fill="white"/>
<path d="M9.29883 14.6123C9.29883 16.4521 8.95312 17.8408 8.26172 18.7783C7.57617 19.71 6.53027 20.1758 5.12402 20.1758C3.74121 20.1758 2.69824 19.7217 1.99512 18.8135C1.29785 17.8994 0.94043 16.5488 0.922852 14.7617V12.5469C0.922852 10.707 1.26562 9.32715 1.95117 8.40723C2.64258 7.4873 3.69434 7.02734 5.10645 7.02734C6.50684 7.02734 7.5498 7.47559 8.23535 8.37207C8.92676 9.26855 9.28125 10.6104 9.29883 12.3975V14.6123ZM7.16309 12.2217C7.16309 11.0205 6.99902 10.1416 6.6709 9.58496C6.34277 9.02246 5.82129 8.74121 5.10645 8.74121C4.40918 8.74121 3.89648 9.00781 3.56836 9.54102C3.24023 10.0684 3.06738 10.8945 3.0498 12.0195V14.9199C3.0498 16.1152 3.2168 17.0059 3.55078 17.5918C3.88477 18.1777 4.40918 18.4707 5.12402 18.4707C5.80957 18.4707 6.31641 18.2012 6.64453 17.6621C6.97266 17.1172 7.14551 16.2676 7.16309 15.1133V12.2217Z" fill="white"/>
</svg>
