<svg width="158" height="30" viewBox="0 0 158 30" fill="none" xmlns="http://www.w3.org/2000/svg">
<path d="M29.9218 11.5079C29.7254 10.9004 29.1866 10.469 28.5492 10.4115L19.8903 9.62529L16.4664 1.61125C16.2139 1.02392 15.639 0.643738 15.0002 0.643738C14.3613 0.643738 13.7864 1.02392 13.5339 1.61262L10.11 9.62529L1.44977 10.4115C0.813463 10.4703 0.276035 10.9004 0.0785047 11.5079C-0.119025 12.1154 0.0633981 12.7817 0.544749 13.2017L7.08979 18.9417L5.15981 27.4433C5.01859 28.0684 5.26121 28.7145 5.77987 29.0894C6.05865 29.2909 6.38482 29.3934 6.71373 29.3934C6.99732 29.3934 7.27863 29.317 7.53109 29.1659L15.0002 24.7019L22.4665 29.1659C23.0128 29.4946 23.7015 29.4646 24.2191 29.0894C24.738 28.7134 24.9803 28.067 24.8391 27.4433L22.9091 18.9417L29.4542 13.2028C29.9355 12.7817 30.1193 12.1165 29.9218 11.5079V11.5079Z" fill="#FFC107"/>
<path d="M157.922 10.8642C157.726 10.2567 157.187 9.82523 156.549 9.76778L147.891 8.98155L144.467 0.967508C144.214 0.380183 143.639 0 143 0C142.362 0 141.787 0.380182 141.534 0.968882L138.11 8.98155L129.45 9.76778C128.814 9.82661 128.276 10.2567 128.079 10.8642C127.881 11.4716 128.064 12.1379 128.545 12.5579L135.09 18.298L133.16 26.7995C133.019 27.4246 133.261 28.0708 133.78 28.4457C134.059 28.6471 134.385 28.7497 134.714 28.7497C134.998 28.7497 135.279 28.6732 135.531 28.5222L143 24.0582L150.467 28.5222C151.013 28.8508 151.702 28.8209 152.219 28.4457C152.738 28.0696 152.981 27.4233 152.839 26.7995L150.909 18.298L157.454 12.5591C157.936 12.1379 158.12 11.4728 157.922 10.8642V10.8642Z" fill="#FFC107"/>
<path d="M125.922 10.8642C125.726 10.2567 125.187 9.82523 124.549 9.76778L115.891 8.98155L112.467 0.967508C112.214 0.380183 111.639 0 111 0C110.362 0 109.787 0.380182 109.534 0.968882L106.11 8.98155L97.45 9.76778C96.8136 9.82661 96.2762 10.2567 96.0787 10.8642C95.8812 11.4716 96.0636 12.1379 96.5449 12.5579L103.09 18.298L101.16 26.7995C101.019 27.4246 101.261 28.0708 101.78 28.4457C102.059 28.6471 102.385 28.7497 102.714 28.7497C102.998 28.7497 103.279 28.6732 103.531 28.5222L111 24.0582L118.467 28.5222C119.013 28.8508 119.702 28.8209 120.219 28.4457C120.738 28.0696 120.981 27.4233 120.839 26.7995L118.909 18.298L125.454 12.5591C125.936 12.1379 126.12 11.4728 125.922 10.8642V10.8642Z" fill="#FFC107"/>
<path d="M93.9219 10.8642C93.7255 10.2567 93.1867 9.82523 92.5493 9.76778L83.8905 8.98155L80.4665 0.967508C80.2141 0.380183 79.6391 0 79.0003 0C78.3614 0 77.7865 0.380182 77.534 0.968882L74.1101 8.98155L65.4499 9.76778C64.8136 9.82661 64.2762 10.2567 64.0786 10.8642C63.8811 11.4716 64.0635 12.1379 64.5449 12.5579L71.0899 18.298L69.1599 26.7995C69.0187 27.4246 69.2613 28.0708 69.78 28.4457C70.0588 28.6471 70.3849 28.7497 70.7139 28.7497C70.9974 28.7497 71.2787 28.6732 71.5312 28.5222L79.0003 24.0582L86.4666 28.5222C87.0129 28.8508 87.7017 28.8209 88.2192 28.4457C88.7381 28.0696 88.9805 27.4233 88.8392 26.7995L86.9093 18.298L93.4543 12.5591C93.9357 12.1379 94.1195 11.4728 93.9219 10.8642V10.8642Z" fill="#FFC107"/>
<path d="M61.9219 10.8642C61.7255 10.2567 61.1867 9.82523 60.5492 9.76778L51.8904 8.98155L48.4665 0.967508C48.214 0.380183 47.639 0 47.0002 0C46.3614 0 45.7864 0.380182 45.534 0.968882L42.11 8.98155L33.4498 9.76778C32.8135 9.82661 32.2761 10.2567 32.0786 10.8642C31.881 11.4716 32.0635 12.1379 32.5448 12.5579L39.0899 18.298L37.1599 26.7995C37.0186 27.4246 37.2613 28.0708 37.7799 28.4457C38.0587 28.6471 38.3849 28.7497 38.7138 28.7497C38.9974 28.7497 39.2787 28.6732 39.5311 28.5222L47.0002 24.0582L54.4665 28.5222C55.0129 28.8508 55.7016 28.8209 56.2191 28.4457C56.738 28.0696 56.9804 27.4233 56.8392 26.7995L54.9092 18.298L61.4542 12.5591C61.9356 12.1379 62.1194 11.4728 61.9219 10.8642V10.8642Z" fill="#FFC107"/>
</svg>
