<svg width="20" height="20" viewBox="0 0 20 20" fill="none" xmlns="http://www.w3.org/2000/svg">
<path d="M19.7483 17.1846L14.946 12.2377C14.6016 11.8828 14.1712 11.7407 13.9848 11.9222C13.7976 12.1024 13.3669 11.9606 13.0226 11.6057L12.9539 11.5347C15.1032 8.71598 14.8946 4.68022 12.3136 2.10662C9.49666 -0.702208 4.92931 -0.702208 2.11271 2.10662C-0.704238 4.91545 -0.704238 9.46898 2.11271 12.2778C4.73771 14.8956 8.8808 15.0709 11.7134 12.81L11.7436 12.8414C12.0873 13.1963 12.2154 13.6299 12.0277 13.8103C11.8408 13.9909 11.9679 14.4248 12.3127 14.779L17.1124 19.7278C17.4567 20.0818 18.0242 20.0923 18.3804 19.7487L19.7275 18.4491C20.0824 18.1062 20.092 17.5408 19.7483 17.1846ZM10.7285 10.6972C8.78998 12.6304 5.63545 12.6304 3.69724 10.6978C1.75873 8.76488 1.75902 5.61909 3.69724 3.68652C5.63545 1.7536 8.78998 1.75389 10.7278 3.68681C12.6666 5.61944 12.6666 8.76458 10.7285 10.6972Z" fill="#FFEED1"/>
</svg>
